<svg width="1024" height="1024" viewBox="0 0 1024 1024" xmlns="http://www.w3.org/2000/svg">
  <defs>
    <linearGradient id="qtn-brand" x1="13.6%" y1="16.6%" x2="95%" y2="92%">
      <stop offset="0%" stop-color="#FC9826"/>
      <stop offset="100%" stop-color="#F86011"/>
    </linearGradient>
  </defs>
  <!-- 对话气泡外轮廓（带白描边，用于深色背景可见性） -->
  <path
    d="M326.4 40.2C423.3 2.1 526.9-4.5 624.1 17.6c97.1 22 187.8 72.6 258.8 148.8 71 76.2 115.1 170.2 130.2 268.7 15.1 98.5 1.3 201.4-43.6 295.4-12 23.8-15 51.1-8.7 77l21 78.6c7.2 27 -0.5 55.7-20.2 75.5-19.7 19.7-48.5 27.5-75.5 20.3l-78.6-21.1c-25.9-6.4-53.2-3.3-77.1 8.7-157.1 75-341.7 64.2-488.9-28.7C94.3 847.95 5 685.96 5 511.8 5.06 407.65 36.95 308.82 93.06 226.5 149.17 144.17 229.49 78.35 326.4 40.22Z"
    fill="url(#qtn-brand)"
    stroke="#FFFFFF"
    stroke-width="10"
  />
  <!-- Q 字母 -->
  <path
    transform="translate(237 211)"
    d="M480.07 605c-14.7-17.84-21.33-24-69.94-69.19-42.7 22.57-81.72 32.17-135.5 32.17-78.05 0-143.57-23.29-191.4-68.52C28.72 448.1 0 373.39 0 285.73 0 113.06 109.72 0 276.87 0c166.38 0 273.13 110.32 273.13 282.33 0 47.2-8.1 88.32-23.59 126.7-13.23 30.82-25.02 47.95-55.22 80.83l20.61 18.51c16.97 15.08 30.97 26.06 47.89 38.37L480.07 605Zm-136.24-232.95c12.51 14.37 27.27 28.06 57.42 55.5 32.4-37.03 45.68-78.11 45.68-146.63 0-67.81-20.66-123.99-58.9-159.64-29.49-27.41-68.5-41.8-113.41-41.8-44.87 0-83.93 14.39-114.09 41.8-38.3 35.64-58.9 92.5-58.9 163.12 0 123.97 68.45 204.13 174.47 204.13 25.03 0 45.64-4.1 66.3-13.69-22.86-20.57-37.57-32.92-58.9-48.01l60.34-54.78Z"
    fill="#FFFFFF"
  />
</svg>
